HIERARCHY
ROOT root
{
	OFFSET 0.000000 0.000000 0.000000
	CHANNELS 6 Xposition Yposition Zposition Zrotation Yrotation Xrotation
	JOINT lhip
	{
		OFFSET 0.058581 -0.082280 -0.017664
		CHANNELS 3 Zrotation Yrotation Xrotation
		JOINT lknee
		{
			OFFSET 0.043451 -0.386469 0.008037
			CHANNELS 3 Zrotation Yrotation Xrotation
			JOINT lankle
			{
				OFFSET -0.014790 -0.426874 -0.037428
				CHANNELS 3 Zrotation Yrotation Xrotation
				JOINT ltoe
				{
					OFFSET 0.041054 -0.060286 0.122042
					CHANNELS 3 Zrotation Yrotation Xrotation
					End Site
					{
						OFFSET 0.000000 0.000000 0.000000
					}
				}
			}
		}
	}
	JOINT rhip
	{
		OFFSET -0.060310 -0.090513 -0.013543
		CHANNELS 3 Zrotation Yrotation Xrotation
		JOINT rknee
		{
			OFFSET -0.043257 -0.383688 -0.004843
			CHANNELS 3 Zrotation Yrotation Xrotation
			JOINT rankle
			{
				OFFSET 0.019056 -0.420046 -0.034562
				CHANNELS 3 Zrotation Yrotation Xrotation
				JOINT rtoe
				{
					OFFSET -0.034840 -0.062106 0.130323
					CHANNELS 3 Zrotation Yrotation Xrotation
					End Site
					{
						OFFSET 0.000000 0.000000 0.000000
					}
				}
			}
		}
	}
	JOINT lowerback
	{
		OFFSET 0.004439 0.124404 -0.038385
		CHANNELS 3 Zrotation Yrotation Xrotation
		JOINT upperback
		{
			OFFSET 0.004488 0.137956 0.026820
			CHANNELS 3 Zrotation Yrotation Xrotation
			JOINT chest
			{
				OFFSET -0.002265 0.056032 0.002855
				CHANNELS 3 Zrotation Yrotation Xrotation
				JOINT lowerneck
				{
					OFFSET -0.013390 0.211636 -0.033468
					CHANNELS 3 Zrotation Yrotation Xrotation
					JOINT upperneck
					{
						OFFSET 0.010113 0.088937 0.050410
						CHANNELS 3 Zrotation Yrotation Xrotation
						End Site
						{
							OFFSET 0.000000 0.000000 0.000000
						}
					}
				}
				JOINT lclavicle
				{
					OFFSET 0.071702 0.114000 -0.018898
					CHANNELS 3 Zrotation Yrotation Xrotation
					JOINT lshoulder
					{
						OFFSET 0.122921 0.045205 -0.019046
						CHANNELS 3 Zrotation Yrotation Xrotation
						JOINT lelbow
						{
							OFFSET 0.255332 -0.015649 -0.022946
							CHANNELS 3 Zrotation Yrotation Xrotation
							JOINT lwrist
							{
								OFFSET 0.265709 0.012698 -0.007375
								CHANNELS 3 Zrotation Yrotation Xrotation
								End Site
								{
									OFFSET 0.000000 0.000000 0.000000
								}
							}
						}
					}
				}
				JOINT rclavicle
				{
					OFFSET -0.082954 0.112472 -0.023707
					CHANNELS 3 Zrotation Yrotation Xrotation
					JOINT rshoulder
					{
						OFFSET -0.113228 0.046853 -0.008472
						CHANNELS 3 Zrotation Yrotation Xrotation
						JOINT relbow
						{
							OFFSET -0.260127 -0.014369 -0.031269
							CHANNELS 3 Zrotation Yrotation Xrotation
							JOINT rwrist
							{
								OFFSET -0.269108 0.006794 -0.006027
								CHANNELS 3 Zrotation Yrotation Xrotation
								End Site
								{
									OFFSET 0.000000 0.000000 0.000000
								}
							}
						}
					}
				}
			}
		}
	}
}
MOTION
Frames: 5
Frame Time: 0.033333
0.212097 0.288304 0.979978 -99.547886 -0.227999 88.415681 8.944747 5.241629 2.896933 -3.233552 5.704734 3.198021 3.135255 13.285181 -10.504566 0.000000 -0.000000 0.000000 -7.289005 -7.193459 0.634137 2.810340 -5.812625 6.543747 1.494231 -9.030618 -10.002918 0.000000 -0.000000 0.000000 1.346986 0.238629 1.704150 -0.352486 -1.181498 3.101700 -1.807691 -1.930242 2.707644 -1.520728 3.671518 -0.819816 -0.789657 12.844920 2.624933 -31.128671 3.408327 5.745372 -45.440631 3.097397 21.350902 -162.911416 -74.929629 171.519384 25.560243 -1.338722 -27.525809 24.761529 -0.322294 3.504008 50.386502 -2.643096 24.682668 176.989738 81.562911 -178.116284 -4.260501 10.722377 -22.820207 
0.211961 0.288290 0.979775 -99.513334 -0.264217 88.446056 8.912347 5.210852 2.899555 -3.248499 5.558940 3.113059 3.227373 13.333011 -10.432123 0.000000 -0.000000 0.000000 -7.397926 -7.031934 0.661176 2.964861 -5.770843 6.476328 1.748818 -9.270079 -10.015792 0.000000 -0.000000 0.000000 1.308363 0.284022 1.558702 -0.385720 -1.151888 3.186820 -1.772732 -1.946261 2.806745 -1.302937 3.861091 -0.989685 -1.102679 12.959674 2.869857 -31.154323 3.457890 5.644380 -45.495459 3.113204 21.296768 -162.961185 -74.886561 171.880017 25.576378 -1.305858 -27.600983 24.713549 -0.275995 3.714413 50.366598 -2.431510 24.562550 177.313119 81.509231 -177.349188 -3.974150 10.779337 -23.143908 
0.211684 0.288529 0.979851 -99.567149 -0.247933 88.354677 8.998367 5.342649 3.044890 -3.310729 5.471066 3.088446 3.173789 13.347622 -10.404675 0.000000 -0.000000 0.000000 -7.379133 -6.861286 0.769463 2.960224 -5.792093 6.496933 1.807801 -9.283343 -10.036529 0.000000 -0.000000 0.000000 1.420800 0.343605 1.716685 -0.523164 -0.957570 3.147965 -1.883458 -1.900633 2.723556 -1.503263 3.714621 -0.939702 -0.824902 12.577163 2.837951 -31.029292 3.374009 5.759454 -45.337982 3.176484 21.270280 -163.244592 -74.551524 172.523010 25.781597 -1.124274 -27.489801 24.672186 -0.244358 3.608205 50.680464 -2.642340 24.515008 176.099634 81.581495 -178.487329 -4.533822 10.810261 -23.341648 
0.211381 0.287856 0.980176 -99.461328 -0.173062 88.197572 9.160771 5.116947 2.837159 -3.504897 5.137031 3.859733 3.145695 13.553778 -10.786418 0.000000 -0.000000 0.000000 -7.567231 -6.752143 0.840434 3.217267 -5.800158 6.722256 1.957428 -9.217809 -10.179169 0.000000 -0.000000 0.000000 1.601703 0.242637 2.024308 -0.614927 -0.942157 3.029221 -1.986386 -1.848889 2.745047 -1.695234 3.466402 -1.111002 -0.522581 12.049165 2.803977 -30.893268 3.539679 5.680537 -45.431594 3.361980 21.506534 -163.263138 -73.765426 172.493047 26.471048 -1.142599 -27.165519 24.577790 -0.206538 3.480900 50.660555 -2.901290 24.635354 175.009133 81.421455 -179.911921 -5.160370 10.452748 -23.190234 
0.211717 0.287360 0.980322 -99.575883 -0.113777 88.195707 9.219080 4.986906 2.286178 -3.589975 5.196172 4.995114 3.146786 13.700623 -11.200781 0.000000 -0.000000 0.000000 -7.661118 -6.431980 0.535670 3.377130 -5.888681 7.223425 2.053551 -9.154325 -10.376448 0.000000 -0.000000 0.000000 1.733812 0.197168 2.308893 -0.629361 -0.734786 2.784752 -2.060406 -1.820205 2.819116 -1.589462 3.178373 -1.290841 -0.518463 11.747265 2.989676 -30.747893 3.766523 5.660360 -45.580430 3.350595 21.487383 -163.174873 -73.312695 173.069353 26.178743 -1.262799 -27.136564 24.348838 -0.392639 3.366745 50.534871 -2.978893 24.617827 171.717358 81.213118 177.004544 -5.160720 10.823831 -23.859299 
